<svg xmlns="http://www.w3.org/2000/svg" xmlns:xlink="http://www.w3.org/1999/xlink" width="500" zoomAndPan="magnify" viewBox="0 0 375 374.999991" height="500" preserveAspectRatio="xMidYMid meet" version="1.0"><defs><clipPath id="d191d8f9ff"><path d="M 375.015625 187.507812 C 375.015625 190.578125 374.941406 193.644531 374.789062 196.707031 C 374.640625 199.773438 374.414062 202.832031 374.113281 205.886719 C 373.8125 208.941406 373.4375 211.984375 372.988281 215.023438 C 372.535156 218.058594 372.011719 221.078125 371.414062 224.089844 C 370.816406 227.097656 370.144531 230.09375 369.398438 233.070312 C 368.652344 236.046875 367.832031 239.003906 366.941406 241.9375 C 366.050781 244.875 365.089844 247.789062 364.054688 250.679688 C 363.023438 253.566406 361.917969 256.429688 360.742188 259.265625 C 359.570312 262.101562 358.324219 264.90625 357.015625 267.679688 C 355.703125 270.453125 354.324219 273.191406 352.875 275.898438 C 351.429688 278.605469 349.917969 281.273438 348.339844 283.90625 C 346.761719 286.539062 345.121094 289.128906 343.414062 291.683594 C 341.710938 294.234375 339.945312 296.742188 338.117188 299.207031 C 336.289062 301.671875 334.402344 304.089844 332.453125 306.460938 C 330.507812 308.835938 328.503906 311.15625 326.441406 313.429688 C 324.382812 315.703125 322.265625 317.925781 320.097656 320.097656 C 317.925781 322.265625 315.703125 324.382812 313.429688 326.441406 C 311.15625 328.503906 308.835938 330.507812 306.460938 332.453125 C 304.089844 334.402344 301.671875 336.289062 299.207031 338.117188 C 296.742188 339.945312 294.234375 341.710938 291.683594 343.414062 C 289.128906 345.121094 286.539062 346.761719 283.90625 348.339844 C 281.273438 349.917969 278.605469 351.429688 275.898438 352.875 C 273.191406 354.324219 270.453125 355.703125 267.679688 357.015625 C 264.90625 358.324219 262.101562 359.570312 259.265625 360.742188 C 256.429688 361.917969 253.566406 363.023438 250.679688 364.054688 C 247.789062 365.089844 244.875 366.050781 241.9375 366.941406 C 239.003906 367.832031 236.046875 368.652344 233.070312 369.398438 C 230.09375 370.144531 227.097656 370.816406 224.089844 371.414062 C 221.078125 372.011719 218.058594 372.535156 215.023438 372.988281 C 211.984375 373.4375 208.941406 373.8125 205.886719 374.113281 C 202.832031 374.414062 199.773438 374.640625 196.707031 374.789062 C 193.644531 374.941406 190.578125 375.015625 187.507812 375.015625 C 184.441406 375.015625 181.371094 374.941406 178.308594 374.789062 C 175.242188 374.640625 172.183594 374.414062 169.128906 374.113281 C 166.074219 373.8125 163.03125 373.4375 159.996094 372.988281 C 156.960938 372.535156 153.9375 372.011719 150.925781 371.414062 C 147.917969 370.816406 144.925781 370.144531 141.949219 369.398438 C 138.972656 368.652344 136.015625 367.832031 133.078125 366.941406 C 130.140625 366.050781 127.226562 365.089844 124.339844 364.054688 C 121.449219 363.023438 118.585938 361.917969 115.753906 360.742188 C 112.917969 359.570312 110.113281 358.324219 107.339844 357.015625 C 104.5625 355.703125 101.824219 354.324219 99.117188 352.875 C 96.410156 351.429688 93.742188 349.917969 91.109375 348.339844 C 88.476562 346.761719 85.886719 345.121094 83.335938 343.414062 C 80.78125 341.710938 78.273438 339.945312 75.808594 338.117188 C 73.34375 336.289062 70.925781 334.402344 68.554688 332.453125 C 66.183594 330.507812 63.859375 328.503906 61.585938 326.441406 C 59.3125 324.382812 57.089844 322.265625 54.917969 320.097656 C 52.75 317.925781 50.632812 315.703125 48.574219 313.429688 C 46.511719 311.15625 44.507812 308.835938 42.5625 306.460938 C 40.617188 304.089844 38.726562 301.671875 36.898438 299.207031 C 35.070312 296.742188 33.304688 294.234375 31.601562 291.683594 C 29.894531 289.128906 28.253906 286.539062 26.675781 283.90625 C 25.097656 281.273438 23.585938 278.605469 22.140625 275.898438 C 20.695312 273.191406 19.316406 270.453125 18.003906 267.679688 C 16.691406 264.90625 15.449219 262.101562 14.273438 259.265625 C 13.097656 256.429688 11.996094 253.566406 10.960938 250.679688 C 9.925781 247.789062 8.964844 244.875 8.074219 241.9375 C 7.183594 239.003906 6.363281 236.046875 5.621094 233.070312 C 4.875 230.09375 4.203125 227.097656 3.601562 224.089844 C 3.003906 221.078125 2.480469 218.058594 2.03125 215.023438 C 1.578125 211.984375 1.203125 208.941406 0.902344 205.886719 C 0.601562 202.832031 0.375 199.773438 0.226562 196.707031 C 0.0742188 193.644531 0 190.578125 0 187.507812 C 0 184.441406 0.0742188 181.371094 0.226562 178.308594 C 0.375 175.242188 0.601562 172.183594 0.902344 169.128906 C 1.203125 166.074219 1.578125 163.03125 2.03125 159.996094 C 2.480469 156.960938 3.003906 153.9375 3.601562 150.925781 C 4.203125 147.917969 4.875 144.925781 5.621094 141.949219 C 6.363281 138.972656 7.183594 136.015625 8.074219 133.078125 C 8.964844 130.140625 9.925781 127.226562 10.960938 124.339844 C 11.996094 121.449219 13.097656 118.585938 14.273438 115.753906 C 15.449219 112.917969 16.691406 110.113281 18.003906 107.339844 C 19.316406 104.5625 20.695312 101.824219 22.140625 99.117188 C 23.585938 96.410156 25.097656 93.742188 26.675781 91.109375 C 28.253906 88.476562 29.894531 85.886719 31.601562 83.335938 C 33.304688 80.78125 35.070312 78.273438 36.898438 75.808594 C 38.726562 73.34375 40.617188 70.925781 42.5625 68.554688 C 44.507812 66.183594 46.511719 63.859375 48.574219 61.585938 C 50.632812 59.3125 52.75 57.089844 54.917969 54.917969 C 57.089844 52.75 59.3125 50.632812 61.585938 48.574219 C 63.859375 46.511719 66.183594 44.507812 68.554688 42.5625 C 70.925781 40.617188 73.34375 38.726562 75.808594 36.898438 C 78.273438 35.070312 80.78125 33.304688 83.335938 31.601562 C 85.886719 29.894531 88.476562 28.253906 91.109375 26.675781 C 93.742188 25.097656 96.410156 23.585938 99.117188 22.140625 C 101.824219 20.695312 104.5625 19.316406 107.339844 18.003906 C 110.113281 16.691406 112.917969 15.449219 115.753906 14.273438 C 118.585938 13.097656 121.449219 11.996094 124.339844 10.960938 C 127.226562 9.925781 130.140625 8.964844 133.078125 8.074219 C 136.015625 7.183594 138.972656 6.363281 141.949219 5.621094 C 144.925781 4.875 147.917969 4.203125 150.925781 3.601562 C 153.9375 3.003906 156.960938 2.480469 159.996094 2.03125 C 163.03125 1.578125 166.074219 1.203125 169.128906 0.902344 C 172.183594 0.601562 175.242188 0.375 178.308594 0.226562 C 181.371094 0.0742188 184.441406 0 187.507812 0 C 190.578125 0 193.644531 0.0742188 196.707031 0.226562 C 199.773438 0.375 202.832031 0.601562 205.886719 0.902344 C 208.941406 1.203125 211.984375 1.578125 215.023438 2.03125 C 218.058594 2.480469 221.078125 3.003906 224.089844 3.601562 C 227.097656 4.203125 230.09375 4.875 233.070312 5.621094 C 236.046875 6.363281 239.003906 7.183594 241.9375 8.074219 C 244.875 8.964844 247.789062 9.925781 250.679688 10.960938 C 253.566406 11.996094 256.429688 13.097656 259.265625 14.273438 C 262.101562 15.449219 264.90625 16.691406 267.679688 18.003906 C 270.453125 19.316406 273.191406 20.695312 275.898438 22.140625 C 278.605469 23.585938 281.273438 25.097656 283.90625 26.675781 C 286.539062 28.253906 289.128906 29.894531 291.683594 31.601562 C 294.234375 33.304688 296.742188 35.070312 299.207031 36.898438 C 301.671875 38.726562 304.089844 40.617188 306.460938 42.5625 C 308.835938 44.507812 311.15625 46.511719 313.429688 48.574219 C 315.703125 50.632812 317.925781 52.75 320.097656 54.917969 C 322.265625 57.089844 324.382812 59.3125 326.441406 61.585938 C 328.503906 63.859375 330.507812 66.183594 332.453125 68.554688 C 334.402344 70.925781 336.289062 73.34375 338.117188 75.808594 C 339.945312 78.273438 341.710938 80.78125 343.414062 83.335938 C 345.121094 85.886719 346.761719 88.476562 348.339844 91.109375 C 349.917969 93.742188 351.429688 96.410156 352.875 99.117188 C 354.324219 101.824219 355.703125 104.5625 357.015625 107.339844 C 358.324219 110.113281 359.570312 112.917969 360.742188 115.753906 C 361.917969 118.585938 363.023438 121.449219 364.054688 124.339844 C 365.089844 127.226562 366.050781 130.140625 366.941406 133.078125 C 367.832031 136.015625 368.652344 138.972656 369.398438 141.949219 C 370.144531 144.925781 370.816406 147.917969 371.414062 150.925781 C 372.011719 153.9375 372.535156 156.960938 372.988281 159.996094 C 373.4375 163.03125 373.8125 166.074219 374.113281 169.128906 C 374.414062 172.183594 374.640625 175.242188 374.789062 178.308594 C 374.941406 181.371094 375.015625 184.441406 375.015625 187.507812 Z M 375.015625 187.507812 " clip-rule="nonzero"/></clipPath><linearGradient x1="0" gradientTransform="matrix(0.835003, 0, 0, 0.835003, 0.0000045, 0)" y1="224.558" x2="449.099992" gradientUnits="userSpaceOnUse" y2="224.558" id="cd48558243"><stop stop-opacity="1" stop-color="rgb(37.599182%, 24.699402%, 93.699646%)" offset="0"/><stop stop-opacity="1" stop-color="rgb(37.556458%, 24.85199%, 93.748474%)" offset="0.015625"/><stop stop-opacity="1" stop-color="rgb(37.472534%, 25.158691%, 93.84613%)" offset="0.03125"/><stop stop-opacity="1" stop-color="rgb(37.387085%, 25.463867%, 93.945312%)" offset="0.046875"/><stop stop-opacity="1" stop-color="rgb(37.303162%, 25.770569%, 94.042969%)" offset="0.0625"/><stop stop-opacity="1" stop-color="rgb(37.219238%, 26.077271%, 94.142151%)" offset="0.078125"/><stop stop-opacity="1" stop-color="rgb(37.135315%, 26.382446%, 94.239807%)" offset="0.09375"/><stop stop-opacity="1" stop-color="rgb(37.049866%, 26.689148%, 94.338989%)" offset="0.109375"/><stop stop-opacity="1" stop-color="rgb(36.965942%, 26.99585%, 94.436646%)" offset="0.125"/><stop stop-opacity="1" stop-color="rgb(36.882019%, 27.301025%, 94.535828%)" offset="0.140625"/><stop stop-opacity="1" stop-color="rgb(36.79657%, 27.607727%, 94.633484%)" offset="0.15625"/><stop stop-opacity="1" stop-color="rgb(36.712646%, 27.914429%, 94.732666%)" offset="0.171875"/><stop stop-opacity="1" stop-color="rgb(36.628723%, 28.22113%, 94.830322%)" offset="0.1875"/><stop stop-opacity="1" stop-color="rgb(36.5448%, 28.526306%, 94.929504%)" offset="0.203125"/><stop stop-opacity="1" stop-color="rgb(36.459351%, 28.833008%, 95.027161%)" offset="0.21875"/><stop stop-opacity="1" stop-color="rgb(36.375427%, 29.139709%, 95.126343%)" offset="0.234375"/><stop stop-opacity="1" stop-color="rgb(36.291504%, 29.444885%, 95.223999%)" offset="0.25"/><stop stop-opacity="1" stop-color="rgb(36.206055%, 29.751587%, 95.323181%)" offset="0.265625"/><stop stop-opacity="1" stop-color="rgb(36.122131%, 30.058289%, 95.420837%)" offset="0.28125"/><stop stop-opacity="1" stop-color="rgb(36.038208%, 30.363464%, 95.52002%)" offset="0.296875"/><stop stop-opacity="1" stop-color="rgb(35.952759%, 30.670166%, 95.617676%)" offset="0.3125"/><stop stop-opacity="1" stop-color="rgb(35.868835%, 30.976868%, 95.716858%)" offset="0.328125"/><stop stop-opacity="1" stop-color="rgb(35.784912%, 31.283569%, 95.814514%)" offset="0.34375"/><stop stop-opacity="1" stop-color="rgb(35.700989%, 31.588745%, 95.913696%)" offset="0.359375"/><stop stop-opacity="1" stop-color="rgb(35.61554%, 31.895447%, 96.011353%)" offset="0.375"/><stop stop-opacity="1" stop-color="rgb(35.531616%, 32.202148%, 96.110535%)" offset="0.390625"/><stop stop-opacity="1" stop-color="rgb(35.447693%, 32.507324%, 96.208191%)" offset="0.40625"/><stop stop-opacity="1" stop-color="rgb(35.362244%, 32.814026%, 96.307373%)" offset="0.421875"/><stop stop-opacity="1" stop-color="rgb(35.27832%, 33.120728%, 96.405029%)" offset="0.4375"/><stop stop-opacity="1" stop-color="rgb(35.194397%, 33.425903%, 96.504211%)" offset="0.453125"/><stop stop-opacity="1" stop-color="rgb(35.110474%, 33.732605%, 96.603394%)" offset="0.46875"/><stop stop-opacity="1" stop-color="rgb(35.025024%, 34.039307%, 96.70105%)" offset="0.484375"/><stop stop-opacity="1" stop-color="rgb(34.941101%, 34.344482%, 96.800232%)" offset="0.5"/><stop stop-opacity="1" stop-color="rgb(34.857178%, 34.651184%, 96.897888%)" offset="0.515625"/><stop stop-opacity="1" stop-color="rgb(34.771729%, 34.957886%, 96.99707%)" offset="0.53125"/><stop stop-opacity="1" stop-color="rgb(34.687805%, 35.264587%, 97.094727%)" offset="0.546875"/><stop stop-opacity="1" stop-color="rgb(34.603882%, 35.569763%, 97.193909%)" offset="0.5625"/><stop stop-opacity="1" stop-color="rgb(34.518433%, 35.876465%, 97.291565%)" offset="0.578125"/><stop stop-opacity="1" stop-color="rgb(34.434509%, 36.183167%, 97.390747%)" offset="0.59375"/><stop stop-opacity="1" stop-color="rgb(34.350586%, 36.488342%, 97.488403%)" offset="0.609375"/><stop stop-opacity="1" stop-color="rgb(34.266663%, 36.795044%, 97.587585%)" offset="0.625"/><stop stop-opacity="1" stop-color="rgb(34.181213%, 37.101746%, 97.685242%)" offset="0.640625"/><stop stop-opacity="1" stop-color="rgb(34.09729%, 37.406921%, 97.784424%)" offset="0.65625"/><stop stop-opacity="1" stop-color="rgb(34.013367%, 37.713623%, 97.88208%)" offset="0.671875"/><stop stop-opacity="1" stop-color="rgb(33.927917%, 38.020325%, 97.981262%)" offset="0.6875"/><stop stop-opacity="1" stop-color="rgb(33.843994%, 38.327026%, 98.078918%)" offset="0.703125"/><stop stop-opacity="1" stop-color="rgb(33.760071%, 38.632202%, 98.178101%)" offset="0.71875"/><stop stop-opacity="1" stop-color="rgb(33.676147%, 38.938904%, 98.275757%)" offset="0.734375"/><stop stop-opacity="1" stop-color="rgb(33.590698%, 39.245605%, 98.374939%)" offset="0.75"/><stop stop-opacity="1" stop-color="rgb(33.506775%, 39.550781%, 98.472595%)" offset="0.765625"/><stop stop-opacity="1" stop-color="rgb(33.422852%, 39.857483%, 98.571777%)" offset="0.78125"/><stop stop-opacity="1" stop-color="rgb(33.337402%, 40.164185%, 98.669434%)" offset="0.796875"/><stop stop-opacity="1" stop-color="rgb(33.253479%, 40.46936%, 98.768616%)" offset="0.8125"/><stop stop-opacity="1" stop-color="rgb(33.169556%, 40.776062%, 98.866272%)" offset="0.828125"/><stop stop-opacity="1" stop-color="rgb(33.084106%, 41.082764%, 98.965454%)" offset="0.84375"/><stop stop-opacity="1" stop-color="rgb(33.000183%, 41.387939%, 99.06311%)" offset="0.859375"/><stop stop-opacity="1" stop-color="rgb(32.91626%, 41.694641%, 99.162292%)" offset="0.875"/><stop stop-opacity="1" stop-color="rgb(32.832336%, 42.001343%, 99.259949%)" offset="0.890625"/><stop stop-opacity="1" stop-color="rgb(32.746887%, 42.308044%, 99.359131%)" offset="0.90625"/><stop stop-opacity="1" stop-color="rgb(32.662964%, 42.61322%, 99.456787%)" offset="0.921875"/><stop stop-opacity="1" stop-color="rgb(32.579041%, 42.919922%, 99.555969%)" offset="0.9375"/><stop stop-opacity="1" stop-color="rgb(32.493591%, 43.226624%, 99.653625%)" offset="0.953125"/><stop stop-opacity="1" stop-color="rgb(32.409668%, 43.531799%, 99.752808%)" offset="0.96875"/><stop stop-opacity="1" stop-color="rgb(32.325745%, 43.838501%, 99.850464%)" offset="0.984375"/><stop stop-opacity="1" stop-color="rgb(32.241821%, 44.145203%, 99.949646%)" offset="1"/></linearGradient></defs><g clip-path="url(#d191d8f9ff)"><rect x="-37.5" fill="url(#cd48558243)" width="450" y="-37.499999" height="449.999989"/></g></svg>